<svg width="256" height="256" viewBox="0 0 256 256" fill="none" xmlns="http://www.w3.org/2000/svg">
<circle cx="128" cy="128" r="128" fill="black"/>
<path fill-rule="evenodd" clip-rule="evenodd" d="M188.168 181.773C194.626 172.798 199.1 161.617 199.1 146.375C199.1 131.133 194.626 119.284 188.168 110.309C181.602 101.184 174.323 97.6193 168.578 97.6193C162.833 97.6193 155.554 101.184 148.988 110.309C142.53 119.284 138.057 131.133 138.057 146.375C138.057 161.617 142.53 172.798 148.988 181.773C155.554 190.899 162.833 195.131 168.578 195.131C174.323 195.131 181.602 190.899 188.168 181.773ZM168.578 209.156C193.526 209.156 213.75 181.048 213.75 146.375C213.75 111.702 193.526 83.5938 168.578 83.5938C143.63 83.5938 123.406 111.702 123.406 146.375C123.406 181.048 143.63 209.156 168.578 209.156Z" fill="#1E6BAD"/>
<path d="M230.594 64.4531L144.078 42.25L94.2417 188.807L47.984 113.246L30 148.672L49.1406 140.25L95.8438 219.875L160.156 70.5781L230.594 64.4531Z" fill="#1E6BAD"/>
</svg>
